<?xml version="1.0" encoding="utf-8"?>
<!-- Generator: Adobe Illustrator 23.0.3, SVG Export Plug-In . SVG Version: 6.00 Build 0)  -->
<svg version="1.1" id="drum" xmlns="http://www.w3.org/2000/svg" xmlns:xlink="http://www.w3.org/1999/xlink" x="0px" y="0px"
	 viewBox="0 0 528.3 81.8" style="enable-background:new 0 0 528.3 81.8;" xml:space="preserve">
<style type="text/css">
	.st0{fill:#333A68;}
	.st1{fill:#494B9A;}
	.st2{fill:#3A3A3A;}
	.st3{fill:#C7C6C6;}
	.st4{opacity:0.62;}
	.st5{fill:#72C8EA;}
	.st6{fill:#589CB1;}
	.st7{fill:#385E69;}
	.st8{fill:#342A28;}
	.st9{fill:#F5B781;}
	.st10{fill:#E9946F;}
</style>
<g>
	<circle class="st0" cx="266.1" cy="49" r="17.1"/>
	<circle class="st1" cx="266.1" cy="49" r="14.7"/>
	
		<rect x="253.7" y="52.7" transform="matrix(0.8207 0.5714 -0.5714 0.8207 79.9702 -135.0662)" class="st2" width="2.8" height="14.4"/>
	<circle class="st3" cx="259.8" cy="53.1" r="3.5"/>
	
		<rect x="279" y="41.8" transform="matrix(0.4613 -0.8872 0.8872 0.4613 107.2797 275.4245)" class="st2" width="2.8" height="15.1"/>
	<circle class="st3" cx="272.8" cy="45.4" r="3.5"/>
</g>
<g class="st4">
	<path class="st5" d="M16.7,39.8c-0.4,0.9-0.2,1.8,0.5,2.5l14,13.9v10.7c0,1.3,1,2.3,2.3,2.3h16.6c1.3,0,2.3-1,2.3-2.3V56.3l14-14
		c0.4-0.4,0.7-1,0.7-1.6c0-0.3-0.1-0.6-0.2-0.9c-0.4-0.9-1.2-1.4-2.1-1.4l-45.9,0C17.9,38.4,17.1,38.9,16.7,39.8z M48.5,53.7
		c-0.4,0.4-0.7,1-0.7,1.6v9.3h-12v-9.4c0-0.6-0.2-1.2-0.7-1.6L24.4,43l34.8,0L48.5,53.7z"/>
	<path class="st6" d="M41.7,15.9c-8.6,0-16.4,5.1-19.8,13.1c-0.5,1.2,0,2.5,1.2,3c1.2,0.5,2.5,0,3-1.2c2.7-6.2,8.8-10.3,15.6-10.3
		c6.7,0,12.8,4,15.5,10.2c0.5,1.2,1.9,1.7,3,1.2c0.9-0.4,1.4-1.2,1.4-2.1c0-0.3-0.1-0.6-0.2-0.9C58.1,21,50.3,15.9,41.7,15.9z"/>
	<path class="st7" d="M41.7,26c-4.6,0-8.6,2.7-10.4,6.9c-0.5,1.2,0.1,2.5,1.2,3c1.2,0.5,2.5-0.1,3-1.2c1.1-2.5,3.5-4.1,6.2-4.1
		c2.7,0,5.1,1.6,6.2,4.1c0.5,1.2,1.9,1.7,3,1.2c0.9-0.4,1.4-1.2,1.4-2.1c0-0.3-0.1-0.6-0.2-0.9C50.3,28.7,46.2,26,41.7,26z"/>
	<path class="st5" d="M12.8,25c-0.5,1.2,0,2.5,1.2,3c1.2,0.5,2.5,0,3-1.2c4.2-9.9,13.9-16.3,24.7-16.3c10.7,0,20.4,6.4,24.6,16.2
		c0.5,1.2,1.9,1.7,3,1.2c0.9-0.4,1.4-1.2,1.4-2.1c0-0.3-0.1-0.6-0.2-0.9c-5-11.5-16.3-19-28.8-19C29.2,5.9,17.8,13.4,12.8,25z"/>
</g>
<path class="st8" d="M146.1,45.6l19,0.1c9.2,0,16.8-7.5,16.8-16.7l0-3.1c0-9.2-7.5-16.8-16.7-16.8l-19-0.1
	c-9.2,0-16.8,7.5-16.8,16.7l0,3.1C129.3,38,136.8,45.6,146.1,45.6z"/>
<path class="st9" d="M153.6,77l3.7,0c11,0,20.1-9,20.1-20l0.1-19.9c0-11-9-20.1-20-20.1l-3.7,0c-11,0-20.1,9-20.1,20l-0.1,19.9
	C133.5,67.8,142.5,76.9,153.6,77z"/>
<circle class="st10" cx="181.8" cy="43.5" r="4.7"/>
<circle class="st10" cx="129.3" cy="43.3" r="4.7"/>
<ellipse transform="matrix(3.765781e-03 -1 1 3.765781e-03 135.0924 175.6824)" class="st8" cx="155.7" cy="20" rx="9" ry="19"/>
<path class="st8" d="M177.7,41.6l0.7,0c1.9,0,3.5-1.6,3.6-3.5l0.1-14.3c0-1.9-1.6-3.5-3.5-3.6l-0.7,0c-1.9,0-3.5,1.6-3.6,3.5
	l-0.1,14.3C174.1,40,175.7,41.6,177.7,41.6z"/>
<path class="st8" d="M132.8,41.5l0.7,0c1.9,0,3.5-1.6,3.6-3.5l0.1-14.3c0-1.9-1.6-3.5-3.5-3.6l-0.7,0c-1.9,0-3.5,1.6-3.6,3.5
	l-0.1,14.3C129.3,39.9,130.9,41.5,132.8,41.5z"/>
</svg>
