<?xml version="1.0" encoding="utf-8"?>
<!-- Generator: Adobe Illustrator 24.0.1, SVG Export Plug-In . SVG Version: 6.00 Build 0)  -->
<svg version="1.1" id="Laag_1" xmlns="http://www.w3.org/2000/svg" xmlns:xlink="http://www.w3.org/1999/xlink" x="0px" y="0px"
	 viewBox="0 0 243 241.6" style="enable-background:new 0 0 243 241.6;" xml:space="preserve">
<style type="text/css">
	.st0{fill:url(#SVGID_1_);}
	.st1{fill:url(#SVGID_2_);}
	.st2{fill:url(#SVGID_3_);}
	.st3{opacity:0.5;fill:url(#SVGID_4_);}
	.st4{fill:url(#SVGID_5_);}
	.st5{fill:url(#SVGID_6_);}
	.st6{fill-rule:evenodd;clip-rule:evenodd;fill:url(#SVGID_7_);}
	.st7{filter:url(#Adobe_OpacityMaskFilter);}
	.st8{opacity:0.76;mask:url(#SVGID_8_);fill-rule:evenodd;clip-rule:evenodd;fill:#0A0810;}
	.st9{filter:url(#Adobe_OpacityMaskFilter_1_);}
	.st10{opacity:0.3;mask:url(#SVGID_9_);}
	.st11{fill-rule:evenodd;clip-rule:evenodd;fill:#010202;}
	.st12{filter:url(#Adobe_OpacityMaskFilter_2_);}
	.st13{opacity:0.76;fill-rule:evenodd;clip-rule:evenodd;fill:#010202;}
	.st14{opacity:0.5;}
	.st15{filter:url(#Adobe_OpacityMaskFilter_3_);}
	.st16{opacity:0.37;mask:url(#SVGID_10_);}
	.st17{opacity:0.5;fill:#010202;}
</style>
<g>
	<radialGradient id="SVGID_1_" cx="123.7256" cy="74.3274" r="206.3714" gradientUnits="userSpaceOnUse">
		<stop  offset="0.2954" style="stop-color:#FFFFFF"/>
		<stop  offset="0.9965" style="stop-color:#B4B5B2"/>
	</radialGradient>
	<path class="st0" d="M235.4,131.8c-4.7,62.9-59.5,110.1-122.4,105.4C50.1,232.5,2.9,177.7,7.6,114.8C12.2,51.9,67,4.7,129.9,9.4
		C192.9,14.1,240,68.9,235.4,131.8z"/>
	<linearGradient id="SVGID_2_" gradientUnits="userSpaceOnUse" x1="202.3773" y1="214.2684" x2="45.5434" y2="37.5464">
		<stop  offset="0.1438" style="stop-color:#9D9D9D"/>
		<stop  offset="0.3824" style="stop-color:#FFFFFF"/>
		<stop  offset="0.5044" style="stop-color:#D3D1D2"/>
		<stop  offset="0.6331" style="stop-color:#ACABAB"/>
		<stop  offset="0.6994" style="stop-color:#9D9D9D"/>
		<stop  offset="0.7855" style="stop-color:#D8D8D8"/>
		<stop  offset="0.9257" style="stop-color:#AEADAD"/>
		<stop  offset="1" style="stop-color:#9D9D9D"/>
	</linearGradient>
	<path class="st1" d="M129.9,9.2C67,4.5,12.2,51.7,7.6,114.6C2.9,177.5,50.1,232.3,113,237c62.9,4.7,117.7-42.5,122.4-105.4
		C240,68.7,192.9,13.9,129.9,9.2z M224.3,130.8c-2,27.5-14.7,52.5-35.5,70.5c-20.9,18-47.5,26.8-75,24.7
		c-27.5-2-52.5-14.7-70.5-35.5c-18-20.9-26.7-47.5-24.7-75c2-27.5,14.7-52.5,35.5-70.5c20.9-18,47.5-26.8,75-24.7
		c27.5,2,52.5,14.7,70.5,35.5C217.6,76.7,226.4,103.3,224.3,130.8z"/>
	<radialGradient id="SVGID_3_" cx="125.0249" cy="271.2244" r="217.2809" gradientUnits="userSpaceOnUse">
		<stop  offset="0" style="stop-color:#FFFFFF"/>
		<stop  offset="0.2688" style="stop-color:#E0DEDF"/>
		<stop  offset="0.7386" style="stop-color:#B0AEAF"/>
		<stop  offset="0.9701" style="stop-color:#9D9D9D"/>
		<stop  offset="1" style="stop-color:#9D9D9D"/>
	</radialGradient>
	<path class="st2" d="M121.6,227.5c-2.6,0-5.3-0.1-7.9-0.3c-27.8-2.1-53.2-14.9-71.4-36c-18.2-21.1-27.1-48.1-25-75.9
		c2.1-27.8,14.9-53.2,36-71.4c18.9-16.3,43.1-25.3,68-25.3c2.6,0,5.3,0.1,7.9,0.3c27.8,2.1,53.2,14.9,71.4,36
		c18.2,21.1,27.1,48.1,25,75.9c-2.1,27.8-14.9,53.2-36,71.4C170.6,218.5,146.5,227.5,121.6,227.5z M121.3,21.2
		C97,21.2,73.5,30,55,45.9c-20.6,17.8-33.1,42.5-35.1,69.6c-2,27.1,6.6,53.4,24.4,74c17.8,20.6,42.5,33.1,69.6,35.1
		c2.6,0.2,5.2,0.3,7.7,0.3c24.3,0,47.8-8.8,66.3-24.7c20.6-17.8,33.1-42.5,35.1-69.6c2-27.1-6.6-53.4-24.4-74
		C180.9,36,156.2,23.5,129,21.5C126.5,21.3,123.9,21.2,121.3,21.2z"/>
	
		<radialGradient id="SVGID_4_" cx="44.843" cy="274.8715" r="220.2861" gradientTransform="matrix(0.9769 0 0 0.9769 81.1842 1.3952)" gradientUnits="userSpaceOnUse">
		<stop  offset="0" style="stop-color:#FFFFFF"/>
		<stop  offset="0.2688" style="stop-color:#E0DEDF"/>
		<stop  offset="0.7386" style="stop-color:#B0AEAF"/>
		<stop  offset="0.9701" style="stop-color:#9D9D9D"/>
		<stop  offset="1" style="stop-color:#9D9D9D"/>
	</radialGradient>
	<path class="st3" d="M121.6,226.6c-2.6,0-5.2-0.1-7.8-0.3c-27.5-2.1-52.6-14.7-70.7-35.6c-18-20.9-26.8-47.6-24.8-75.2
		C20.4,88,33,62.9,54,44.8c18.8-16.2,42.7-25.1,67.3-25.1c2.6,0,5.2,0.1,7.8,0.3c27.5,2.1,52.6,14.7,70.7,35.6
		c18,20.9,26.8,47.6,24.8,75.2c-2.1,27.5-14.7,52.6-35.6,70.7C170.2,217.7,146.3,226.6,121.6,226.6z M121.3,22.3
		c-24,0-47.4,8.7-65.7,24.4c-20.4,17.6-32.8,42.1-34.8,68.9c-2,26.9,6.6,52.9,24.2,73.3c17.6,20.4,42.1,32.8,68.9,34.8
		c2.5,0.2,5.1,0.3,7.7,0.3c24,0,47.4-8.7,65.7-24.4c20.4-17.6,32.8-42.1,34.8-68.9c2-26.9-6.6-52.9-24.2-73.3
		c-17.6-20.4-42.1-32.8-68.9-34.8C126.4,22.4,123.8,22.3,121.3,22.3z"/>
	<linearGradient id="SVGID_5_" gradientUnits="userSpaceOnUse" x1="122.2365" y1="230.3164" x2="122.2365" y2="117.4069">
		<stop  offset="0.1438" style="stop-color:#9D9D9D"/>
		<stop  offset="0.9437" style="stop-color:#FFFFFF"/>
	</linearGradient>
	<path class="st4" d="M22.7,120.4c0,0,37.9,19.6,98.9,20.5c60.9,0.9,100.2-23.4,100.2-23.4s1.2,30.1-16.1,59
		c-11.9,19.9-40.3,47.2-86.2,46.7c-43-0.4-73.1-27.6-85.7-53.3C21.3,144.1,22.7,120.4,22.7,120.4z"/>
	<radialGradient id="SVGID_6_" cx="119.3405" cy="24.0384" r="143.2235" gradientUnits="userSpaceOnUse">
		<stop  offset="9.944990e-03" style="stop-color:#020203"/>
		<stop  offset="8.329070e-02" style="stop-color:#020203"/>
		<stop  offset="0.5245" style="stop-color:#DACEBE"/>
		<stop  offset="0.6952" style="stop-color:#F8F8F4"/>
	</radialGradient>
	<path class="st5" d="M225.9,114c2.3-1.9,4.7-3.6,7.1-5.3c-2.4-29-32.8-102.3-114.5-98.3C16.9,15.3,9.4,113.5,9.4,113.5l6.4,3.4
		c0,0,8.5-94.2,102.7-98.4c77.1-3.5,105.8,71.2,107.4,95C225.9,113.7,225.9,113.8,225.9,114z"/>
</g>
<g>
	<g>
		<g>
			<linearGradient id="SVGID_7_" gradientUnits="userSpaceOnUse" x1="29.1405" y1="103.8376" x2="208.3011" y2="103.8376">
				<stop  offset="0.1042" style="stop-color:#95C11F"/>
				<stop  offset="0.2005" style="stop-color:#B6BB11"/>
				<stop  offset="0.4046" style="stop-color:#E5A200"/>
				<stop  offset="0.5003" style="stop-color:#F39200"/>
				<stop  offset="0.5576" style="stop-color:#EE8700"/>
				<stop  offset="0.66" style="stop-color:#E06B17"/>
				<stop  offset="0.7948" style="stop-color:#CB3C20"/>
				<stop  offset="0.8806" style="stop-color:#BE1622"/>
			</linearGradient>
			<path class="st6" d="M118.7,64.5c40.8,0,75.7,25.5,89.6,61.5l-44.8,17.2c-6.9-18-24.3-30.8-44.8-30.8
				c-20.4,0-37.9,12.8-44.8,30.8L29.1,126C43,90,77.9,64.5,118.7,64.5L118.7,64.5z"/>
			<defs>
				<filter id="Adobe_OpacityMaskFilter" filterUnits="userSpaceOnUse" x="29.1" y="64.5" width="179.2" height="78.7">
					
						<feColorMatrix  type="matrix" values="-1 0 0 0 1  0 -1 0 0 1  0 0 -1 0 1  0 0 0 1 0" color-interpolation-filters="sRGB" result="source"/>
				</filter>
			</defs>
			<mask maskUnits="userSpaceOnUse" x="29.1" y="64.5" width="179.2" height="78.7" id="SVGID_8_">
				<g class="st7">
					
						<image style="overflow:visible;" width="764" height="346" xlink:href="E173306FB88B0.jpg"  transform="matrix(0.24 0 0 0.24 27.1002 62.267)">
					</image>
				</g>
			</mask>
			<path class="st8" d="M118.7,64.5c40.8,0,75.7,25.5,89.6,61.5l-44.8,17.2c-6.9-18-24.3-30.8-44.8-30.8
				c-20.4,0-37.9,12.8-44.8,30.8L29.1,126C43,90,77.9,64.5,118.7,64.5L118.7,64.5z"/>
		</g>
		<defs>
			<filter id="Adobe_OpacityMaskFilter_1_" filterUnits="userSpaceOnUse" x="29.1" y="64.5" width="179.2" height="78.7">
				
					<feColorMatrix  type="matrix" values="-1 0 0 0 1  0 -1 0 0 1  0 0 -1 0 1  0 0 0 1 0" color-interpolation-filters="sRGB" result="source"/>
			</filter>
		</defs>
		<mask maskUnits="userSpaceOnUse" x="29.1" y="64.5" width="179.2" height="78.7" id="SVGID_9_">
			<g class="st9">
				
					<image style="overflow:visible;" width="764" height="346" xlink:href="E173306FB88B7.jpg"  transform="matrix(0.24 0 0 0.24 27.1002 62.267)">
				</image>
			</g>
		</mask>
		<g class="st10">
			<path class="st11" d="M118.7,64.5c40.8,0,75.7,25.5,89.6,61.5l-44.8,17.2c-6.9-18-24.3-30.8-44.8-30.8
				c-20.4,0-37.9,12.8-44.8,30.8L29.1,126C43,90,77.9,64.5,118.7,64.5L118.7,64.5z"/>
			<defs>
				<filter id="Adobe_OpacityMaskFilter_2_" filterUnits="userSpaceOnUse" x="29.1" y="64.5" width="179.2" height="78.7">
					
						<feColorMatrix  type="matrix" values="-1 0 0 0 1  0 -1 0 0 1  0 0 -1 0 1  0 0 0 1 0" color-interpolation-filters="sRGB" result="source"/>
				</filter>
			</defs>
			<mask maskUnits="userSpaceOnUse" x="29.1" y="64.5" width="179.2" height="78.7" id="SVGID_9_">
				<g class="st12">
					
						<image style="overflow:visible;" width="764" height="346" xlink:href="E173306FB88BD.jpg"  transform="matrix(0.24 0 0 0.24 27.1002 62.267)">
					</image>
				</g>
			</mask>
			<path class="st13" d="M118.7,64.5c40.8,0,75.7,25.5,89.6,61.5l-44.8,17.2c-6.9-18-24.3-30.8-44.8-30.8
				c-20.4,0-37.9,12.8-44.8,30.8L29.1,126C43,90,77.9,64.5,118.7,64.5L118.7,64.5z"/>
		</g>
	</g>
</g>
<g>
	<g>
		<g>
			<path class="st14" d="M78.9,182.5c0.3,0.5,0.8,1,1.4,1.4c0.8,0.5,1.5,0.3,1.8-0.2c0.3-0.5,0.1-1-0.6-1.8c-0.9-1-1.3-2.1-0.8-3.1
				c0.6-1.1,2.1-1.5,3.6-0.6c0.7,0.4,1.2,0.9,1.5,1.3l-0.9,0.8c-0.2-0.3-0.5-0.7-1.2-1.1c-0.8-0.4-1.4-0.2-1.6,0.2
				c-0.3,0.5,0,1,0.7,1.9c1,1.1,1.2,2.1,0.6,3c-0.6,1.1-2,1.6-3.8,0.6c-0.7-0.4-1.4-1-1.6-1.5L78.9,182.5z"/>
			<path class="st14" d="M87.2,179.9c0.5,0.1,1.2,0.4,2.1,0.8c1,0.4,1.6,1,1.8,1.6c0.3,0.6,0.3,1.2,0,1.9c-0.3,0.7-0.8,1.1-1.4,1.3
				c-0.8,0.3-1.7,0.1-2.6-0.3c-0.2-0.1-0.5-0.2-0.6-0.3l-1.3,2.7l-1.3-0.6L87.2,179.9z M86.9,183.9c0.1,0.1,0.3,0.2,0.6,0.4
				c1,0.5,1.8,0.3,2.2-0.6c0.4-0.8,0-1.5-0.9-1.9c-0.4-0.2-0.6-0.3-0.8-0.3L86.9,183.9z"/>
			<path class="st14" d="M91.7,188.1l-1.4,1.8l-1.4-0.5l5.2-6.5l1.7,0.7l-0.4,8.3l-1.4-0.6L94,189L91.7,188.1z M94.2,187.9l0.1-2
				c0-0.5,0.1-1.1,0.2-1.5l0,0c-0.3,0.4-0.6,0.9-0.9,1.2l-1.3,1.6L94.2,187.9z"/>
			<path class="st14" d="M96.9,192.4l2.1-7.6l1.6,0.4l1.1,3.8c0.3,1,0.5,2,0.6,2.9l0,0c0.2-1,0.4-2,0.8-3.2l0.7-2.7l1.3,0.4
				l-2.1,7.6l-1.4-0.4l-1.1-3.9c-0.3-1-0.5-2.1-0.6-3l0,0c-0.2,1-0.5,2-0.8,3.3l-0.8,2.7L96.9,192.4z"/>
			<path class="st14" d="M105.1,194.5l1.3-7.8l1.6,0.3l1.5,3.7c0.4,1,0.7,1.9,0.9,2.8l0,0c0.1-1.1,0.2-2.1,0.4-3.3l0.5-2.7l1.3,0.2
				l-1.3,7.8l-1.5-0.2l-1.5-3.8c-0.4-0.9-0.7-2-1-2.9l0,0c-0.1,1-0.3,2-0.5,3.3l-0.5,2.8L105.1,194.5z"/>
			<path class="st14" d="M115.4,188l-0.7,7.9l-1.4-0.1l0.7-7.9L115.4,188z"/>
			<path class="st14" d="M116.8,196l0.1-7.9l1.6,0l2,3.4c0.5,0.9,1,1.8,1.3,2.7h0c-0.1-1.1-0.1-2.1-0.1-3.3l0-2.8l1.3,0l-0.1,7.9
				l-1.5,0l-2-3.5c-0.5-0.9-1-1.9-1.4-2.7l0,0c0.1,1,0.1,2.1,0,3.4l0,2.8L116.8,196z"/>
			<path class="st14" d="M131.6,194.9c-0.5,0.2-1.4,0.6-2.5,0.7c-1.3,0.1-2.4-0.1-3.2-0.7c-0.8-0.6-1.3-1.6-1.4-2.8
				c-0.3-2.5,1.3-4.3,3.9-4.6c1-0.1,1.7,0,2.1,0.1l-0.2,1.2c-0.5-0.1-1-0.2-1.8-0.1c-1.7,0.2-2.8,1.3-2.5,3.1c0.2,1.8,1.4,2.7,3,2.5
				c0.5-0.1,0.9-0.2,1.1-0.3l-0.2-2l-1.4,0.2l-0.1-1.1l2.8-0.3L131.6,194.9z"/>
			<path class="st14" d="M133.2,193.3c0.5,0.2,1.3,0.2,2,0.1c0.9-0.2,1.3-0.7,1.2-1.4c-0.1-0.6-0.6-0.8-1.7-1
				c-1.4-0.2-2.3-0.7-2.6-1.8c-0.3-1.3,0.6-2.5,2.3-2.8c0.8-0.2,1.5-0.1,1.9,0l-0.1,1.2c-0.3-0.1-0.9-0.2-1.6,0
				c-0.9,0.2-1.2,0.8-1.1,1.2c0.1,0.6,0.6,0.8,1.8,1c1.5,0.2,2.3,0.8,2.5,1.9c0.3,1.2-0.4,2.5-2.4,3c-0.8,0.2-1.7,0.1-2.2,0
				L133.2,193.3z"/>
			<path class="st14" d="M145.4,188.3c-0.4-1-0.8-2.1-1.1-3.1l0,0c0.1,1,0.1,2.1,0.1,3.2l0,3.6l-1.1,0.4l-2.1-2.9
				c-0.6-0.9-1.2-1.8-1.7-2.7l0,0c0.3,1,0.6,2.2,0.9,3.2l0.8,3.1l-1.3,0.4l-2-7.7l1.8-0.6l2,2.7c0.6,0.8,1.1,1.6,1.6,2.4l0,0
				c-0.1-0.9-0.1-1.9-0.1-2.9l0-3.4l1.8-0.6l2.9,7.4l-1.3,0.4L145.4,188.3z"/>
			<path class="st14" d="M152.4,185l-2.7,1.2l1,2.1l3-1.4l0.5,1.1l-4.4,2l-3.2-7.2l4.2-1.9l0.5,1.1l-2.9,1.3l0.8,1.9l2.7-1.2
				L152.4,185z"/>
			<path class="st14" d="M153.8,180.6l-2,1.1l-0.6-1.1l5.3-2.8l0.6,1.1l-2,1.1l3.2,5.9l-1.3,0.7L153.8,180.6z"/>
			<path class="st14" d="M163.2,178.8l-2.5,1.6l1.2,2l2.8-1.8l0.6,1l-4,2.5l-4.2-6.7l3.9-2.5l0.6,1l-2.7,1.7l1.1,1.7l2.5-1.6
				L163.2,178.8z"/>
			<path class="st14" d="M162.1,174.3c0.4-0.4,1-0.9,1.7-1.4c0.9-0.7,1.7-1,2.4-0.9c0.6,0,1.1,0.3,1.5,0.9c0.6,0.8,0.4,1.8,0,2.4
				l0,0c0.6-0.2,1.2,0.1,1.8,0.6c0.8,0.7,1.5,1.3,1.8,1.4l-1.2,0.9c-0.2-0.1-0.8-0.5-1.5-1.2c-0.8-0.7-1.3-0.8-2-0.3l-0.6,0.4
				l1.9,2.6l-1.2,0.8L162.1,174.3z M165.3,176.3l0.7-0.5c0.8-0.6,1-1.3,0.5-2c-0.5-0.7-1.2-0.7-2-0.1c-0.4,0.3-0.6,0.5-0.7,0.6
				L165.3,176.3z"/>
		</g>
	</g>
	<defs>
		<filter id="Adobe_OpacityMaskFilter_3_" filterUnits="userSpaceOnUse" x="78.1" y="172" width="93.2" height="24.1">
			
				<feColorMatrix  type="matrix" values="-1 0 0 0 1  0 -1 0 0 1  0 0 -1 0 1  0 0 0 1 0" color-interpolation-filters="sRGB" result="source"/>
		</filter>
	</defs>
	<mask maskUnits="userSpaceOnUse" x="78.1" y="172" width="93.2" height="24.1" id="SVGID_10_">
		<g class="st15">
			
				<image style="overflow:visible;" width="406" height="118" xlink:href="E173306FB88BE.jpg"  transform="matrix(0.24 0 0 0.24 75.9802 169.787)">
			</image>
		</g>
	</mask>
	<g class="st16">
		<g>
			<path class="st17" d="M78.9,182.5c0.3,0.5,0.8,1,1.4,1.4c0.8,0.5,1.5,0.3,1.8-0.2c0.3-0.5,0.1-1-0.6-1.8c-0.9-1-1.3-2.1-0.8-3.1
				c0.6-1.1,2.1-1.5,3.6-0.6c0.7,0.4,1.2,0.9,1.5,1.3l-0.9,0.8c-0.2-0.3-0.5-0.7-1.2-1.1c-0.8-0.4-1.4-0.2-1.6,0.2
				c-0.3,0.5,0,1,0.7,1.9c1,1.1,1.2,2.1,0.6,3c-0.6,1.1-2,1.6-3.8,0.6c-0.7-0.4-1.4-1-1.6-1.5L78.9,182.5z"/>
			<path class="st17" d="M87.2,179.9c0.5,0.1,1.2,0.4,2.1,0.8c1,0.4,1.6,1,1.8,1.6c0.3,0.6,0.3,1.2,0,1.9c-0.3,0.7-0.8,1.1-1.4,1.3
				c-0.8,0.3-1.7,0.1-2.6-0.3c-0.2-0.1-0.5-0.2-0.6-0.3l-1.3,2.7l-1.3-0.6L87.2,179.9z M86.9,183.9c0.1,0.1,0.3,0.2,0.6,0.4
				c1,0.5,1.8,0.3,2.2-0.6c0.4-0.8,0-1.5-0.9-1.9c-0.4-0.2-0.6-0.3-0.8-0.3L86.9,183.9z"/>
			<path class="st17" d="M91.7,188.1l-1.4,1.8l-1.4-0.5l5.2-6.5l1.7,0.7l-0.4,8.3l-1.4-0.6L94,189L91.7,188.1z M94.2,187.9l0.1-2
				c0-0.5,0.1-1.1,0.2-1.5l0,0c-0.3,0.4-0.6,0.9-0.9,1.2l-1.3,1.6L94.2,187.9z"/>
			<path class="st17" d="M96.9,192.4l2.1-7.6l1.6,0.4l1.1,3.8c0.3,1,0.5,2,0.6,2.9l0,0c0.2-1,0.4-2,0.8-3.2l0.7-2.7l1.3,0.4
				l-2.1,7.6l-1.4-0.4l-1.1-3.9c-0.3-1-0.5-2.1-0.6-3l0,0c-0.2,1-0.5,2-0.8,3.3l-0.8,2.7L96.9,192.4z"/>
			<path class="st17" d="M105.1,194.5l1.3-7.8l1.6,0.3l1.5,3.7c0.4,1,0.7,1.9,0.9,2.8l0,0c0.1-1.1,0.2-2.1,0.4-3.3l0.5-2.7l1.3,0.2
				l-1.3,7.8l-1.5-0.2l-1.5-3.8c-0.4-0.9-0.7-2-1-2.9l0,0c-0.1,1-0.3,2-0.5,3.3l-0.5,2.8L105.1,194.5z"/>
			<path class="st17" d="M115.4,188l-0.7,7.9l-1.4-0.1l0.7-7.9L115.4,188z"/>
			<path class="st17" d="M116.8,196l0.1-7.9l1.6,0l2,3.4c0.5,0.9,1,1.8,1.3,2.7h0c-0.1-1.1-0.1-2.1-0.1-3.3l0-2.8l1.3,0l-0.1,7.9
				l-1.5,0l-2-3.5c-0.5-0.9-1-1.9-1.4-2.7l0,0c0.1,1,0.1,2.1,0,3.4l0,2.8L116.8,196z"/>
			<path class="st17" d="M131.6,194.9c-0.5,0.2-1.4,0.6-2.5,0.7c-1.3,0.1-2.4-0.1-3.2-0.7c-0.8-0.6-1.3-1.6-1.4-2.8
				c-0.3-2.5,1.3-4.3,3.9-4.6c1-0.1,1.7,0,2.1,0.1l-0.2,1.2c-0.5-0.1-1-0.2-1.8-0.1c-1.7,0.2-2.8,1.3-2.5,3.1c0.2,1.8,1.4,2.7,3,2.5
				c0.5-0.1,0.9-0.2,1.1-0.3l-0.2-2l-1.4,0.2l-0.1-1.1l2.8-0.3L131.6,194.9z"/>
			<path class="st17" d="M133.2,193.3c0.5,0.2,1.3,0.2,2,0.1c0.9-0.2,1.3-0.7,1.2-1.4c-0.1-0.6-0.6-0.8-1.7-1
				c-1.4-0.2-2.3-0.7-2.6-1.8c-0.3-1.3,0.6-2.5,2.3-2.8c0.8-0.2,1.5-0.1,1.9,0l-0.1,1.2c-0.3-0.1-0.9-0.2-1.6,0
				c-0.9,0.2-1.2,0.8-1.1,1.2c0.1,0.6,0.6,0.8,1.8,1c1.5,0.2,2.3,0.8,2.5,1.9c0.3,1.2-0.4,2.5-2.4,3c-0.8,0.2-1.7,0.1-2.2,0
				L133.2,193.3z"/>
			<path class="st17" d="M145.4,188.3c-0.4-1-0.8-2.1-1.1-3.1l0,0c0.1,1,0.1,2.1,0.1,3.2l0,3.6l-1.1,0.4l-2.1-2.9
				c-0.6-0.9-1.2-1.8-1.7-2.7l0,0c0.3,1,0.6,2.2,0.9,3.2l0.8,3.1l-1.3,0.4l-2-7.7l1.8-0.6l2,2.7c0.6,0.8,1.1,1.6,1.6,2.4l0,0
				c-0.1-0.9-0.1-1.9-0.1-2.9l0-3.4l1.8-0.6l2.9,7.4l-1.3,0.4L145.4,188.3z"/>
			<path class="st17" d="M152.4,185l-2.7,1.2l1,2.1l3-1.4l0.5,1.1l-4.4,2l-3.2-7.2l4.2-1.9l0.5,1.1l-2.9,1.3l0.8,1.9l2.7-1.2
				L152.4,185z"/>
			<path class="st17" d="M153.8,180.6l-2,1.1l-0.6-1.1l5.3-2.8l0.6,1.1l-2,1.1l3.2,5.9l-1.3,0.7L153.8,180.6z"/>
			<path class="st17" d="M163.2,178.8l-2.5,1.6l1.2,2l2.8-1.8l0.6,1l-4,2.5l-4.2-6.7l3.9-2.5l0.6,1l-2.7,1.7l1.1,1.7l2.5-1.6
				L163.2,178.8z"/>
			<path class="st17" d="M162.1,174.3c0.4-0.4,1-0.9,1.7-1.4c0.9-0.7,1.7-1,2.4-0.9c0.6,0,1.1,0.3,1.5,0.9c0.6,0.8,0.4,1.8,0,2.4
				l0,0c0.6-0.2,1.2,0.1,1.8,0.6c0.8,0.7,1.5,1.3,1.8,1.4l-1.2,0.9c-0.2-0.1-0.8-0.5-1.5-1.2c-0.8-0.7-1.3-0.8-2-0.3l-0.6,0.4
				l1.9,2.6l-1.2,0.8L162.1,174.3z M165.3,176.3l0.7-0.5c0.8-0.6,1-1.3,0.5-2c-0.5-0.7-1.2-0.7-2-0.1c-0.4,0.3-0.6,0.5-0.7,0.6
				L165.3,176.3z"/>
		</g>
	</g>
</g>
<g>
	<path class="st14" d="M45.7,145.2c0.3-0.8,0.6-1.7,1-2.5l0,0c-0.5,0.6-1.1,1.4-1.6,2l-1.9,2.2l-0.8-0.3l0.2-2.9
		c0.1-0.9,0.2-1.8,0.3-2.6l0,0c-0.3,0.8-0.8,1.7-1.1,2.5l-1.1,2.4l-1-0.4l2.8-5.8l1.4,0.6l-0.2,2.7c-0.1,0.8-0.2,1.6-0.3,2.3l0,0
		c0.4-0.6,0.9-1.2,1.4-1.8l1.8-2.1L48,142l-2.1,6.1l-1.1-0.4L45.7,145.2z"/>
	<path class="st14" d="M50.6,143l-2.4,6l-1.1-0.4l2.4-6L50.6,143z"/>
	<path class="st14" d="M49.4,149.5l2.4-6l1.2,0.5l0.5,3.2c0.1,0.8,0.2,1.7,0.2,2.4l0,0c0.3-0.8,0.5-1.6,0.9-2.5l0.9-2.1l1,0.4
		l-2.4,6L53,151l-0.5-3.3c-0.1-0.8-0.2-1.7-0.2-2.5l0,0c-0.3,0.8-0.6,1.6-1,2.6l-0.9,2.1L49.4,149.5z"/>
</g>
<g>
	<path class="st14" d="M191.8,148.2c-0.4-0.8-0.8-1.7-1.1-2.5l0,0c0.1,0.8,0.2,1.7,0.3,2.6l0.2,3l-0.8,0.4l-1.9-2.2
		c-0.6-0.7-1.1-1.4-1.6-2.1l0,0c0.3,0.8,0.7,1.8,1,2.6l0.9,2.5l-1,0.4l-2.1-6.1l1.4-0.6l1.8,2.1c0.5,0.6,1,1.2,1.4,1.8l0,0
		c-0.1-0.7-0.2-1.5-0.3-2.3l-0.2-2.7l1.4-0.6l2.9,5.8l-1.1,0.4L191.8,148.2z"/>
	<path class="st14" d="M195.6,147.5l0.2,1.9l-1.1,0.5l-0.6-6.8l1.4-0.6l4.4,5.2l-1.2,0.5l-1.3-1.5L195.6,147.5z M196.9,145.9
		l-1.1-1.3c-0.3-0.3-0.5-0.7-0.8-1l0,0c0.1,0.4,0.1,0.8,0.2,1.2l0.2,1.7L196.9,145.9z"/>
	<path class="st14" d="M203.7,146l-1.1-0.9c-0.5-0.4-0.8-0.6-1.1-0.9l0,0c0,0.4,0,0.8-0.1,1.4l-0.1,1.4l-1.2,0.5l0.5-3.8l-2.9-2.2
		l1.2-0.5l1.2,1c0.4,0.3,0.6,0.5,0.9,0.8l0,0c0-0.4,0-0.8,0-1.2l0.1-1.5l1.2-0.5l-0.5,3.6l3.1,2.3L203.7,146z"/>
</g>
</svg>
