<?xml version="1.0" encoding="utf-8"?>
<!-- Generator: Adobe Illustrator 24.0.1, SVG Export Plug-In . SVG Version: 6.00 Build 0)  -->
<svg version="1.1" id="Laag_1" xmlns="http://www.w3.org/2000/svg" xmlns:xlink="http://www.w3.org/1999/xlink" x="0px" y="0px"
	 viewBox="0 0 64 206.6" style="enable-background:new 0 0 64 206.6;" xml:space="preserve">
<style type="text/css">
	.st0{fill-rule:evenodd;clip-rule:evenodd;fill:#E7E6E6;}
	.st1{fill-rule:evenodd;clip-rule:evenodd;fill:#F9FAFA;}
</style>
<g>
	
		<image style="overflow:visible;opacity:0.75;" width="276" height="874" xlink:href="386C0FC442A998D3.png"  transform="matrix(0.24 0 0 0.24 -1.1225 0.6469)">
	</image>
	<g>
		<g>
			<polygon class="st0" points="28,198.7 34.6,198.8 35.2,15.2 34.5,12.2 34.3,12 34.3,12.1 33.6,12.9 25.7,195.5 			"/>
			<path class="st0" d="M32.4,198.9l2-186.8c0,0,1.4-0.1,1.6,1.3s17.7,167,17.7,167S53,199.5,32.4,198.9z"/>
			<path class="st1" d="M31,198.9l3.3-186.8c0,0-1.4-0.1-1.7,1.3c-0.3,1.4-22.4,166.5-22.4,166.5S10.3,198.9,31,198.9z"/>
		</g>
	</g>
</g>
</svg>
